# xmcd CD database file generated by Grip 3.2.0
# 
# Track frame offsets:
#       150
#       20333
#       39568
#       60478
# 
# Disc length: 1074 seconds
# 
# Revision: 5
# Processed by: cddbd v1.5.1PL0 Copyright (c) Steve Scherf et al.
# Submitted via: Grip 3.2.0
# 
DISCID=28043004
DTITLE=RYTHEM - ホウキ雲
DYEAR=2005
DGENRE=JPop
TTITLE0=ホウキ雲
TTITLE1=名を持つ人へ
TTITLE2=万華鏡キラキラ（acoustic)
TTITLE3=ホウキ雲(instrumental)
EXTD=YEAR: 2005
EXTT0=
EXTT1=
EXTT2=
EXTT3=
PLAYORDER=
